<?xml version="1.0" encoding="utf-8"?>
<!-- Generator: Adobe Illustrator 24.1.0, SVG Export Plug-In . SVG Version: 6.00 Build 0)  -->
<svg version="1.1" id="Calque_1" xmlns="http://www.w3.org/2000/svg" xmlns:xlink="http://www.w3.org/1999/xlink" x="0px" y="0px"
	 width="24px" height="29px" viewBox="0 0 24 29" style="enable-background:new 0 0 24 29;" xml:space="preserve">
<path d="M20,15.4c0,4.4,3.9,5.8,4,5.9c0,0.1-0.6,2.1-2,4.1c-1.2,1.8-2.5,3.5-4.5,3.6c-2,0-2.6-1.2-4.9-1.2s-3,1.1-4.8,1.2
	c-1.9,0.1-3.4-1.9-4.7-3.7c-2.5-3.6-4.5-10.2-1.9-14.6c1.3-2.2,3.6-3.6,6.1-3.6c1.9,0,3.7,1.3,4.9,1.3c1.2,0,3.3-1.6,5.6-1.3
	c1,0,3.7,0.4,5.4,2.9C23.1,10,20,11.7,20,15.4z M16.3,4.6c1-1.2,1.7-2.9,1.5-4.6c-1.5,0.1-3.3,1-4.3,2.2c-1,1.1-1.8,2.8-1.6,4.5
	C13.6,6.8,15.3,5.9,16.3,4.6z"/>
</svg>
