<?xml version="1.0" encoding="utf-8"?>
<!-- Generator: Adobe Illustrator 24.1.0, SVG Export Plug-In . SVG Version: 6.00 Build 0)  -->
<svg version="1.1" id="Calque_1" xmlns="http://www.w3.org/2000/svg" xmlns:xlink="http://www.w3.org/1999/xlink" x="0px" y="0px"
	 width="12px" height="10px" viewBox="0 0 12 10" style="enable-background:new 0 0 12 10;" xml:space="preserve">
<path d="M11,1c-0.7-0.7-1.5-1-2.5-1S6.7,0.4,6,1c0,0,0,0,0,0c0,0,0,0,0,0C5.3,0.4,4.4,0,3.5,0S1.7,0.4,1,1S0,2.6,0,3.5
	C0,7.4,4.1,9,6,10c1.9-1,6-2.6,6-6.5C12,2.6,11.6,1.7,11,1z"/>
</svg>
