<?xml version="1.0" encoding="utf-8"?>
<!-- Generator: Adobe Illustrator 24.1.0, SVG Export Plug-In . SVG Version: 6.00 Build 0)  -->
<svg version="1.1" id="Calque_1" xmlns="http://www.w3.org/2000/svg" xmlns:xlink="http://www.w3.org/1999/xlink" x="0px" y="0px"
	 width="30px" height="30px" viewBox="0 0 30 30" style="enable-background:new 0 0 30 30;" xml:space="preserve">
<path d="M29.9,8.8c-0.1-1.6-0.3-2.7-0.7-3.6c-0.4-1-0.9-1.8-1.7-2.7c-0.8-0.8-1.7-1.3-2.7-1.7c-1-0.4-2-0.6-3.6-0.7
	C19.6,0,19.1,0,15,0c-4.1,0-4.6,0-6.2,0.1C7.2,0.2,6.1,0.4,5.2,0.8c-1,0.4-1.8,0.9-2.7,1.7C1.7,3.4,1.2,4.2,0.8,5.2
	c-0.4,1-0.6,2-0.7,3.6C0,10.4,0,10.9,0,15s0,4.6,0.1,6.2c0.1,1.6,0.3,2.7,0.7,3.6c0.4,1,0.9,1.8,1.7,2.7c0.8,0.8,1.7,1.3,2.7,1.7
	c1,0.4,2,0.6,3.6,0.7C10.4,30,10.9,30,15,30c4.1,0,4.6,0,6.2-0.1c1.6-0.1,2.7-0.3,3.6-0.7c1-0.4,1.8-0.9,2.7-1.7
	c0.8-0.8,1.3-1.7,1.7-2.7c0.4-1,0.6-2,0.7-3.6C30,19.6,30,19.1,30,15S30,10.4,29.9,8.8z M14.8,22.9c-4.2,0-7.7-3.4-7.7-7.7
	s3.4-7.7,7.7-7.7s7.7,3.4,7.7,7.7S19,22.9,14.8,22.9z M23.1,8.9C22,8.9,21.1,8,21.1,7C21.1,5.9,22,5,23.1,5S25,5.9,25,7
	C25,8,24.1,8.9,23.1,8.9z"/>
<circle cx="14.7" cy="15.2" r="5.1"/>
</svg>
