<?xml version="1.0" encoding="utf-8"?>
<!-- Generator: Adobe Illustrator 24.1.0, SVG Export Plug-In . SVG Version: 6.00 Build 0)  -->
<svg version="1.1" id="Calque_1" xmlns="http://www.w3.org/2000/svg" xmlns:xlink="http://www.w3.org/1999/xlink" x="0px" y="0px"
	 width="16.5px" height="16.4px" viewBox="0 0 16.5 16.4" style="enable-background:new 0 0 16.5 16.4;" xml:space="preserve">
<path d="M3.7,16.4H0.3V5.4h3.4V16.4z M2,3.9c-1.1,0-2-0.9-2-2c0-1.1,0.9-2,2-2c1.1,0,2,0.9,2,2S3.1,3.9,2,3.9z M16.5,16.4H13V11
	c0-1.3,0-2.9-1.8-2.9c-1.8,0-2,1.4-2,2.8v5.4H5.8V5.4h3.3v1.5h0.1c0.5-0.9,1.6-1.8,3.2-1.8c3.4,0,4.1,2.3,4.1,5.2V16.4z"/>
</svg>
