<svg width="1330" height="1050" viewBox="0 0 1330 1050" fill="none" xmlns="http://www.w3.org/2000/svg">
<path d="M208.531 935.89C180.219 943.476 157.095 915.117 139.994 851.295C132.766 824.319 126.056 788.741 120.04 745.221C115.704 713.238 113.531 691.959 113.52 681.384C110.509 570.064 122.601 501.946 150.456 476.852C162.344 465.91 173.796 458.61 184.989 455.611C211.326 448.554 235.626 468.135 258.373 513.52C260.265 517.949 261.499 522.555 262.733 527.16C272.43 563.348 277.985 628.853 278.741 723.853C279.443 765.977 278.806 787.303 276.83 787.832C272.222 789.067 264.475 770.692 254.073 731.873C243.319 691.737 235.033 660.813 229.874 638.924C224.455 621.336 212.287 615.428 193.193 620.545C173.44 625.837 167.489 645.767 176.175 680.815C184.684 715.206 190.854 738.234 194.028 750.078C200.551 774.422 216.09 813.98 240.646 868.753C242.01 871.208 242.891 874.498 243.949 878.446C249.767 900.159 242.276 916.975 222.311 929.377C217.573 932.762 213.14 934.655 208.531 935.89ZM364.933 984.953C390.612 978.072 401.359 968.14 397.833 954.981C395.893 947.744 389.039 943.233 376.259 940.311C364.138 937.212 353.11 930.294 342.165 918.418C331.221 906.541 324.755 895.58 321.758 884.395C320.348 879.131 319.596 873.691 320.337 868.556C332.526 766.562 332.112 662.304 318.918 555.123C317.191 540.776 314.324 527.441 310.974 514.939C301.807 480.726 285.49 454.069 261.542 435.804C232.233 413.333 194.952 408.514 150.179 420.511C98.8224 434.272 65.9447 485.393 51.3697 573.217C37.1006 659.549 42.2422 749.847 67.8056 845.251L74.8576 871.569C89.6092 913.455 112.604 943.964 143.535 964.589C166.601 979.564 192.29 983.259 220.603 975.672C235.746 971.615 249.879 966.417 262.166 959.599C268.879 955.685 273.97 953.615 276.604 952.91C283.847 950.969 289.819 952.189 293.863 956.747C319.574 981.592 343.205 990.775 364.933 984.953Z" fill="#F8F9FB"/>
<path d="M598.197 828.658C618.561 820.381 612.013 814.378 611.484 812.404C609.192 803.851 600.798 796.227 594.628 773.199C582.992 729.773 580.376 662.07 587.262 569.254C587.827 563.461 587.075 558.021 585.489 552.1C581.657 540.433 572.781 533.644 557.543 532.085C550.912 531.041 544.634 531.313 538.708 532.901C526.375 536.911 518.261 546.136 515.862 560.883C511.191 588.227 500.124 628.568 484.33 682.869C465.383 746.478 451.06 779.934 442.677 782.885C440.701 783.415 439.338 780.959 437.927 775.695C434.225 761.878 431.559 730.859 430.94 683.776C430.156 646.611 429.558 620.679 429.807 605.803C429.583 602.337 429.008 597.555 427.774 592.949C423.589 579.966 412.256 574.541 392.939 576.191C376.654 581.259 367.012 597.947 364.011 626.254C359.435 659.214 359.69 694.405 364.602 731.17C369.513 767.935 373.579 793.643 377.457 808.118C382.217 825.883 392.504 837.936 407.658 844.453C423.471 850.794 435.898 852.401 445.775 849.754L460.084 845.215C476.368 840.146 489.396 828.193 498.027 810.366C500.261 805.536 506.482 791.881 518.006 769.048C520.863 771.808 522.932 776.895 525.53 783.956C533.416 810.756 544.584 826.099 558.069 831.653C565.888 834.495 576.469 834.48 588.979 831.128L598.197 828.658Z" fill="#F8F9FB"/>
<path d="M692.625 726.49C689.063 721.098 686.641 714.694 684.349 706.141C676.592 677.191 674.843 641.694 679.28 600.309C682.021 576.303 686.702 559.534 693.804 549.169C702.903 559.424 709.898 572.359 714.305 588.808C721.534 615.785 722.178 644.525 716.896 674.854C712.485 697.897 704.512 715.547 692.625 726.49ZM718.145 779.594C725.387 777.653 732.759 773.562 739.121 768.332C758.028 751.982 769.858 727.657 775.092 694.52C780.327 661.383 780.741 636.591 776.992 619.965C773.067 602.682 771.257 593.294 770.728 591.32C761.56 557.106 745.467 533.916 722.271 521.091C714.759 516.757 710.891 512.857 709.351 509.743C700.241 488.913 682.759 481.609 658.397 488.136C643.253 492.194 633.517 503.265 629.013 520.692C621.403 550.234 617.003 583.852 615.33 622.381C613.657 660.91 615.971 690.613 621.612 711.668C625.315 725.485 630.463 736.799 638.069 746.75C664.449 781.993 699.051 784.71 718.145 779.594Z" fill="#F8F9FB"/>
<path d="M929.805 812.44C939.505 809.135 945.384 804.739 948.582 798.241C949.676 794.422 950.288 791.437 949.582 788.805C949.054 786.831 947.031 784.552 944.175 781.792C930.596 770.621 920.792 757.734 914.28 743.964C904.511 723.31 894.955 695.547 885.787 661.333C860.224 565.929 845.242 470.511 841.324 374.243C841.23 368.627 841.313 363.668 842.407 359.849C843.759 351.729 866.581 342.088 910.695 330.268C936.374 323.387 956.173 320.903 968.953 323.825C984.06 327.535 994.948 326.028 998.664 310.928C999.405 305.793 999.488 300.834 998.254 296.229C994.775 285.878 984.888 277.949 967.934 272.619C950.981 267.289 937.061 265.377 925.515 267.06C913.969 268.744 904.575 270.556 896.015 272.849L859.979 283.21C848.127 286.386 841.144 284.026 838.546 276.965C837.664 273.675 837.913 258.799 839.291 232.338C841.352 187.358 843.424 152.953 845.99 128.289C846.378 121.838 846.285 116.222 845.051 111.616C841.701 99.1146 830.497 91.5387 811.615 89.5461C805.819 88.9836 801.034 89.5606 797.083 90.6192C784.573 93.9712 778.305 104.818 778.28 123.16L775.467 291.751C775.525 305.134 770.045 313.655 760.521 317.617L678.582 351.561C661.334 358.298 654.537 367.171 657.535 378.357C659.121 384.278 662.683 389.671 668.397 395.192C682.504 408.336 693.179 413.938 701.739 411.645C722.15 406.176 737.247 399.31 747.864 391.528C756.024 385.111 763.396 381.02 770.639 379.079C773.931 378.197 776.435 379.642 777.493 383.589C778.374 386.879 778.95 391.661 779.878 397.759C788.064 502.051 801.412 588.74 819.924 657.825C835.967 717.7 853.047 760.372 871.162 785.841C881.495 800.702 897.179 809.193 918.565 812.631C922.386 813.722 926.513 813.322 929.805 812.44Z" fill="#F8F9FB"/>
<path d="M972.653 566.127C967.868 566.704 965.187 564.602 964.306 561.312C963.072 556.706 971.422 522.03 989.358 457.282C990.804 454.779 992.427 452.934 995.719 452.052C1000.33 450.817 1002.83 452.261 1003.71 455.551C1005.65 462.789 1002.51 482.671 994.467 515.855C989.221 538.416 981.731 555.233 972.653 566.127ZM1034.7 697.595C1042.6 695.478 1050.98 692.526 1060.02 689.398C1075.95 683.014 1091.44 669.697 1107.79 649.095C1124.15 628.493 1135.42 609.96 1140.27 593.849C1145.79 577.562 1147.75 566.458 1145.81 559.22C1144.05 552.641 1140.01 548.083 1134.16 544.712C1130.34 543.62 1127.36 543.01 1124.06 543.892C1118.14 545.48 1110.99 553.037 1103.28 566.387C1096.66 575.918 1085.83 590.808 1070.43 609.742C1046.62 639.393 1026.4 656.096 1008.62 660.859C996.77 664.035 986.93 658.914 979.277 646.156C977.913 643.7 976.55 641.245 975.845 638.613C974.258 632.691 978.597 625.182 988.862 616.085C1018.21 591.296 1044.24 546.239 1066.79 480.257C1070.02 465.991 1070.14 453.266 1067.14 442.081C1064.68 432.869 1060.41 424.845 1053.51 417.526C1032.45 394.255 1007.68 386.083 980.687 393.317C947.107 402.314 923.919 439.556 909.804 505.396C901.983 542.046 899.817 570.835 903.307 591.761C906.138 612.863 908.171 625.717 909.758 631.639C926.33 693.487 968.196 715.414 1034.7 697.595Z" fill="#F8F9FB"/>
<path d="M1200.79 647.448C1221.64 638.336 1240.98 618.344 1258.82 587.472C1274.07 560.114 1280.2 540.842 1277.2 529.657L1272.26 511.234C1266.14 491.014 1241.72 484.158 1199.01 490.667C1176.57 493.857 1163.09 488.303 1158.38 473.346C1146.92 430.579 1152.27 384.717 1174.26 335.102C1178.55 324.785 1179.9 316.665 1178.14 310.085C1176.2 302.848 1165.22 298.738 1145.86 297.58C1141.55 297.322 1137.43 297.723 1133.48 298.782C1106.48 306.015 1091.85 340.964 1089.77 404.285C1088.22 440.664 1089.65 467.078 1094.06 483.527C1103.23 517.741 1126.3 532.716 1162.6 528.629C1184.55 526.274 1197.64 527.704 1200.85 531.78C1204.06 535.857 1206.43 539.451 1206.96 541.425C1209.96 552.611 1203.17 572.059 1187.09 598.935C1174.86 619.137 1169.78 631.782 1171.36 637.703C1174.36 648.888 1184.33 651.859 1200.79 647.448Z" fill="#F8F9FB"/>
</svg>
