<?xml version="1.0" encoding="utf-8"?>
<!-- Generator: Adobe Illustrator 24.1.0, SVG Export Plug-In . SVG Version: 6.00 Build 0)  -->
<svg version="1.1" id="Calque_1" xmlns="http://www.w3.org/2000/svg" xmlns:xlink="http://www.w3.org/1999/xlink" x="0px" y="0px"
	 width="16px" height="16px" viewBox="0 0 16 16" style="enable-background:new 0 0 16 16;" xml:space="preserve">
<style type="text/css">
	.st0{display:none;fill:#FCD230;}
	.st1{fill:#FCD230;}
</style>
<path class="st0" d="M13.1,16.1L12,15.5l-4-2.2l-4,2.2l-1.1,0.6l0.2-1.3l0.8-4.7L0.6,6.8l-0.9-0.9l1.2-0.2l4.5-0.7l2-4.2L8-0.3
	l0.5,1.2l2,4.2l4.5,0.7l1.2,0.2l-0.9,0.9l-3.3,3.3l0.8,4.7L13.1,16.1z"/>
<path class="st1" d="M12.2,16c-0.2,0-0.4,0-0.6-0.1l-3.7-2l-3.7,2C4.2,16,4,16,3.8,16c-0.2,0-0.5-0.1-0.7-0.2
	c-0.4-0.3-0.6-0.8-0.5-1.2l0.7-4.2l-3-3C0,7-0.1,6.5,0.1,6c0.1-0.5,0.5-0.8,1-0.8l4.1-0.6l1.8-3.9C7.1,0.3,7.5,0,8,0
	c0.5,0,0.9,0.3,1.1,0.7l1.8,3.9L15,5.2c0.4,0.1,0.8,0.4,1,0.8c0.1,0.5,0,0.9-0.3,1.3l-3,3l0.7,4.2c0.1,0.5-0.1,0.9-0.5,1.2
	C12.7,15.9,12.5,16,12.2,16z"/>
</svg>
