<?xml version="1.0" encoding="utf-8"?>
<!-- Generator: Adobe Illustrator 24.1.0, SVG Export Plug-In . SVG Version: 6.00 Build 0)  -->
<svg version="1.1" id="Calque_1" xmlns="http://www.w3.org/2000/svg" xmlns:xlink="http://www.w3.org/1999/xlink" x="0px" y="0px"
	 width="17.6px" height="14.2px" viewBox="0 0 17.6 14.2" style="enable-background:new 0 0 17.6 14.2;" xml:space="preserve">
<path d="M5.8,14.2c6.5-0.2,10-5.5,10-10.2c0-0.2,0-0.3,0-0.5c0.7-0.5,1.3-1.1,1.8-1.9C17,2,16.3,2.2,15.5,2.2c0.7-0.4,1.3-1.1,1.6-2
	c-0.7,0.4-1.5,0.7-2.3,0.9C14.2,0.4,13.2,0,12.2,0c-2,0-3.6,1.6-3.6,3.6c0,0.3,0,0.6,0.1,0.8C5.7,4.3,3,2.8,1.2,0.7
	C0.9,1.2,0.7,1.8,0.7,2.5c0,1.2,0.6,2.3,1.6,3C1.7,5.4,1.2,5.3,0.7,5c0,0,0,0,0,0c0,1.7,1.2,3.2,2.9,3.5C3.3,8.6,3,8.7,2.7,8.7
	c-0.2,0-0.5,0-0.7-0.1c0.5,1.4,1.8,2.5,3.4,2.5c-1.2,1-2.8,1.5-4.5,1.5c-0.3,0-0.6,0-0.9,0v0c1.5,1,3.4,1.6,5.3,1.6H5.8z"/>
</svg>
