<?xml version="1.0" encoding="utf-8"?>
<!-- Generator: Adobe Illustrator 24.1.0, SVG Export Plug-In . SVG Version: 6.00 Build 0)  -->
<svg version="1.1" id="Calque_1" xmlns="http://www.w3.org/2000/svg" xmlns:xlink="http://www.w3.org/1999/xlink" x="0px" y="0px"
	 width="1181.6px" height="747.1px" viewBox="0 0 1181.6 747.1" style="enable-background:new 0 0 1181.6 747.1;"
	 xml:space="preserve">
<path d="M141.2,742.6c23.5-8,33.5-26.4,31.3-56.4c12-199.5,20.1-301.9,23.7-307l4.8-3.8c2.3-0.6,4.9,2.8,6.8,9.8
	c2.3,8.5,5.3,25.9,10.9,46.8c17.2,64.1,42.6,121.9,75.7,174.3c23.1,33.6,45.8,47.4,69.2,41.9l34-9.1c44.8-12,68.6-87.1,70.3-225.9
	c1.1-60.8-0.8-117.4-6-170.7c-5.7-64.7-12.8-112.5-21-143.4c-4.3-16.2-10.2-32-18-45.7c-12-23.3-33.1-40-64.1-50.7
	c-8.2-2.8-15-3.4-20.4-2c-11.6,3.1-15.3,14-13.4,21c1.5,5.4,4.2,9.6,7.8,13.6c19.1,18.9,36.4,55.7,53.1,108.4
	c18,67.2,25.7,145.5,24.1,235.4c-2.5,126.6-21,206.1-27.1,211c-3.5,2.6-5.6,4-7.9,4.6c-13.1,3.5-31.6-31.3-56.1-104.2
	c-12-35.7-24.8-77-37.2-123.4c-6.8-25.5-17.4-68.2-31.1-128.3l-3.5-13.1c-4.3-16.2-19-21.4-43.6-17.3
	c-25.5,6.8-45.9,51.2-61.2,133.2C129.6,408.7,122.9,461,121,497.1c-1.1,35.9-4.5,54.2-9.2,55.5c-3.9,1-7.4-3-10.1-13
	S88.3,412.3,69.2,189.7c-0.3-4.1-0.9-9.7-2.4-15.1c-6.9-19.7-23.5-26-49.8-19c-13.7,4.5-19.3,17.6-16.2,38.3
	c11.5,141.9,21.2,242.8,28,302.3c9.5,81.9,22,153.1,38.1,213.4c10.6,30.3,31.2,42.2,63.5,36L141.2,742.6z M614.5,498.2
	c-4.2-6.3-7-13.9-9.7-23.9c-9.1-34-11.2-75.7-6-124.3c3.2-28.2,8.7-47.9,17-60.1c10.7,12,18.9,27.2,24.1,46.6
	c8.5,31.7,9.3,65.4,3.1,101.1C637.8,464.6,628.4,485.4,614.5,498.2z M644.4,560.6c8.5-2.3,17.2-7.1,24.6-13.2
	c22.2-19.2,36.1-47.8,42.2-86.7c6.1-38.9,6.6-68,2.2-87.6c-4.6-20.3-6.7-31.3-7.4-33.6c-10.8-40.2-29.7-67.4-56.9-82.5
	c-8.8-5.1-13.4-9.7-15.2-13.3c-10.7-24.5-31.2-33-59.8-25.4c-17.8,4.8-29.2,17.8-34.5,38.2c-8.9,34.7-14.1,74.2-16,119.4
	c-2,45.2,0.8,80.1,7.4,104.9c4.3,16.2,10.4,29.5,19.3,41.2C581.4,563.4,622,566.6,644.4,560.6z M814.2,513.5
	c14.7-3.9,21.4-19,20.4-44.4c-4.1-92.5,18.3-169.7,66.7-233.2l6.5-6.7c10.1-8.5,14.7-16.4,13-22.5c-1-3.9-3.6-7.3-8-11.1
	c-7.9-7.8-16.9-10.4-25.4-8.1c-10,2.7-18.7,7.5-27.5,14.8c-27.4,21.4-43.1,46.3-48,74.2c-1.3,4.5-2.2,7.2-3.8,7.6
	c-2.3,0.6-4.1-3-6.2-10.8c-2.3-8.5-3.4-19-3.2-30.6c0-9.1-0.3-16.5-1.7-21.9c-7.7-28.6-26.8-38.4-58.5-29.9
	c-13.1,3.5-19,12.5-17.4,27.8c7.6,71.7,19.2,161.3,35.8,269.5c2.7,10,7.9,16.9,14.7,20.9C785.1,516.3,799.5,517.4,814.2,513.5z
	 M1014.8,603c11.4-3.9,18.1-9.8,19.3-17.6s-2-29.3-9-64.7s-8.2-58.3-3.5-68.6c2.6-5.7,7.4-9.4,12.6-11.7c3.9-1,8.7-1.5,14-0.4
	c28.4,4,60.7,6.9,98.3,8.4c10.1,0.6,18.2,0.1,23.7-1.4c10-2.7,13.2-9.3,10.5-19.4c-2.4-6-7.5-9.6-16.3-11.4
	c-32.9-5.3-65.8-10.5-98.2-14.3c-21.4-2.6-33.8-11.7-37.7-26.3c-1.9-7-1.6-15.3,0-24.8c19.2-95.4,49.7-169.9,91.7-223.3
	c8.2-9.6,11-17.8,9.1-24.8c-2.4-6-10.1-9.7-24.4-10.8c-6.8-0.7-14.7,0.6-23.2,2.9c-24,6.4-44.4,26-61.9,59.6
	c-9.2,18.2-16.4,28.4-21.8,29.9c-3.1,0.8-5.5-1.8-7.3-8.8c-3.7-13.9-5.6-42.4-5.3-84.7c0.4-20-0.8-33.8-3-42.3
	c-7-26.3-26.8-35.1-59.2-26.4c-13.1,3.5-18.5,17.4-16.2,41.6c2.3,20.9,3.8,42,5.3,63.2l5.7,86.3c8.5,146,21.9,251.7,39.3,316.6
	c2.7,10,5.2,19.3,8.2,27.6c11.4,33.4,27.2,49,46.4,46.4L1014.8,603z"/>
</svg>
